# xmcd
#
# Track frame offsets:
#	150
#	30251
#	50958
#	73550
#	101031
#	127322
#	151422
#	176545
#	195848
#	223011
#	241043
#	268866
#	289366
#	313502
#
# Disc length: 4424 seconds
#
# Revision: 2
# Processed by: cddbd v1.5.1PL2 Copyright (c) Steve Scherf et al.
# Submitted via: audiograbber 1.83.01
#
DISCID=cf11460e
DTITLE=J.K.Rowling - Harry Potter og Føniksorderen (Bok 5)
DYEAR=2003
DGENRE=Lydbok/Fantasy
TTITLE0=1301
TTITLE1=1302
TTITLE2=1303
TTITLE3=1304
TTITLE4=1305
TTITLE5=1306
TTITLE6=1307
TTITLE7=1308
TTITLE8=1309
TTITLE9=1310
TTITLE10=1311
TTITLE11=1312
TTITLE12=1313
TTITLE13=1314
EXTD=
EXTT0=
EXTT1=
EXTT2=
EXTT3=
EXTT4=
EXTT5=
EXTT6=
EXTT7=
EXTT8=
EXTT9=
EXTT10=
EXTT11=
EXTT12=
EXTT13=
PLAYORDER=
